<svg id="Layer_1" data-name="Layer 1" xmlns="http://www.w3.org/2000/svg" viewBox="0 0 216.61 97.66"><defs><style>.cls-1{fill:#2a2f71;}.cls-2{fill:#eb5b5d;}.cls-3{fill:#33b8c1;}.cls-4{fill:#eda525;}.cls-5{fill:#9dc425;}</style></defs><path class="cls-1" d="M100.7,32V61.66c0,1.12-.1,1.22-1.2,1.22H92.68c-.79,0-1-.18-1-1v-45c0-.8.16-.94,1-.94h7a1.3,1.3,0,0,1,1.24.67q6.93,9.93,13.88,19.83l7,9.94a1.2,1.2,0,0,0,.58.46V17c0-1.08,0-1.14,1.12-1.14h6.76c.89,0,1,.1,1,1v45c0,.85-.14,1-1,1h-7a1.21,1.21,0,0,1-1.13-.6q-10.32-14.77-20.64-29.53c-.19-.28-.4-.55-.6-.82Z"/><path class="cls-1" d="M172.3,30.39V17.24c0-1.29.06-1.34,1.37-1.34h6.61c.67,0,1,.16.87.85V17c0,8.71,0,17.42.06,26.13a13.47,13.47,0,0,0,2.12,7.5,8.79,8.79,0,0,0,5.88,3.93,13.06,13.06,0,0,0,7.45-.5,9.34,9.34,0,0,0,5.63-6.7,18.79,18.79,0,0,0,.67-4.53c.07-8.7.06-17.41.07-26.08,0-.91,0-.91.93-.91h6.82c.93,0,1.11.16,1.11,1.06,0,8.93.11,17.85,0,26.8-.1,5.86-2,11.14-6.49,15.16a19.91,19.91,0,0,1-25.46.9c-3.73-2.75-5.77-6.62-6.87-11a25.27,25.27,0,0,1-.67-6Z"/><path class="cls-1" d="M24.52,63.77c-5.73,0-10.5-1.34-14.63-4.54A23,23,0,0,1,1.58,46.92,26.18,26.18,0,0,1,3,28.1,21.56,21.56,0,0,1,18.77,15.79a23.9,23.9,0,0,1,16.3,2,22.21,22.21,0,0,1,5.64,4.13.67.67,0,0,1,.25.91.85.85,0,0,1-.25.25c-1.64,1.62-3.27,3.27-4.92,4.91a.87.87,0,0,1-1.2.22,1,1,0,0,1-.23-.22,15,15,0,0,0-19.2-1.23c-3.35,2.6-4.91,6.16-5.4,10.29a17.36,17.36,0,0,0,.85,8.33,13.64,13.64,0,0,0,11.54,9.33A14.22,14.22,0,0,0,34.07,51c.92-.83,1.11-.81,2,.06,1.53,1.55,3,3.12,4.59,4.69.46.46.47.79,0,1.25A24.13,24.13,0,0,1,27.4,63.57C26.26,63.72,25.11,63.73,24.52,63.77Z"/><path class="cls-1" d="M141.52,39.33V17.17c0-1.23,0-1.27,1.28-1.27h6.61c1,0,1,.08,1,1V53.06c0,1.25-.1,1.12,1.1,1.12h14.7c1.22,0,1.34.1,1.34,1.34V62c0,.67-.24.91-.89.91H142.41c-.73,0-.87-.16-.87-1v-11Z"/><path class="cls-1" d="M185.83,12.86a1.6,1.6,0,0,1-.29-.44c-.55-2-1.08-4.07-1.63-6.1-.15-.53.2-.62.56-.73l6.92-2L203.11.17c1-.29,1-.29,1.26.67.49,1.84.95,3.67,1.47,5.5.15.51,0,.67-.46.83l-14.74,4.3-4.29,1.25Z"/><path class="cls-1" d="M55.91,86V97h-2.8l-.17-1.75a7.33,7.33,0,0,1-5.46,2c-5.16,0-9.2-3.6-9.2-9.89a9.61,9.61,0,0,1,16.4-7.06l-2.26,2.26a6.38,6.38,0,0,0-4.53-1.87c-3.54,0-6.4,2.47-6.4,6.67,0,4.7,2.86,6.68,6.4,6.68a6.38,6.38,0,0,0,4.81-2.17v-3H47.59V86Z"/><path class="cls-1" d="M69.44,88.86H66.83v8H63.62V77.67H70s6.43,0,6.43,5.6a5.14,5.14,0,0,1-3.71,5.11l3.93,8.52H73.12Zm-2.61-3.19H70s3.21,0,3.21-2.42S70,80.86,70,80.86H66.83Z"/><path class="cls-1" d="M92.4,97.14c-12.68,0-12.66-19.72,0-19.72S105,97.14,92.4,97.14Zm0-16.59c-8.29,0-8.32,13.49,0,13.49S100.73,80.55,92.4,80.55Z"/><path class="cls-1" d="M126.71,97.66l-6-15.82-6,15.82-7.66-20h3.46L114.71,89l4.2-11.33h3.57L126.71,89l4.2-11.34h3.46Z"/><path class="cls-1" d="M149.84,80.61h-4V96.86h-3.23V80.61h-4V77.67h11.27Z"/><path class="cls-1" d="M170.55,77.67V96.86h-3.22v-8h-8v8h-3.21V77.67h3.21v8h8v-8Z"/><path class="cls-2" d="M65.84,14.29c8.57-.45,17.15,5.95,19.59,14.58a17.82,17.82,0,0,1,.74,6.53H78.61a8.65,8.65,0,0,0-.76-.47,20.24,20.24,0,0,1-11.38-12c-.14-.36-.17-.78-.59-1Z"/><path class="cls-3" d="M65.84,14.29V22a2.92,2.92,0,0,0-.23.47,20,20,0,0,1-11.52,12.5,5.52,5.52,0,0,0-.77.48H45.77A20.26,20.26,0,0,1,62.91,14.46,11.5,11.5,0,0,1,65.84,14.29Z"/><path class="cls-1" d="M65.54,62.86H50.27c-1.11,0-1.45-.36-1.39-1.43a36.43,36.43,0,0,0,0-3.91c0-.92.35-1.25,1.23-1.24h7c7.83,0,15.66,0,23.49-.05,1.22,0,1.62.37,1.54,1.56a29.8,29.8,0,0,0,0,3.78c.06,1-.31,1.25-1.28,1.25C75.82,62.86,70.69,62.86,65.54,62.86Z"/><path class="cls-4" d="M78.61,35.4h7.56a19.83,19.83,0,0,1-10.81,17,18,18,0,0,1-9.52,2.29V47.16a13,13,0,0,0,10.16-5A14.2,14.2,0,0,0,78.61,35.4Z"/><path class="cls-5" d="M65.83,47.16V54.7a20.17,20.17,0,0,1-20.1-19.31h7.59c.13.67.23,1.28.38,1.92C55.07,43,59.42,46.55,65.83,47.16Z"/></svg>